# xmcd
#
# Track frame offsets: 
#        150
#        8583
#        27395
#        41505
#        54933
#        68625
#        82443
#        96205
#        107954
#        118261
#        130818
#        145851
#        165841
#        182373
#        198455
#        213766
#
# Disc length: 3047 seconds
#
# Revision: 0
# Processed by: cddbd v1.4PL0 Copyright (c) Steve Scherf et al.
# Submitted via: ExactAudioCopy v0.90b4
#
DISCID=d50be510
DTITLE=Mud Pack - but everything will be allright
DYEAR=2003
DGENRE=R&B
TTITLE0=Tourenkartenblues
TTITLE1=Good Kind
TTITLE2=Back On The Road
TTITLE3=Hard Travelling
TTITLE4=Tell Me Baby
TTITLE5=Lisas Blues
TTITLE6=Trouble In Mind
TTITLE7=Stag O'Lee
TTITLE8=Old Folks Talk
TTITLE9=Up And Down
TTITLE10=Tourenkartenblues (live)
TTITLE11=Good Morning Blues (live)
TTITLE12=Long Ways From Home Blues (live)
TTITLE13=Good Kind (live)
TTITLE14=Hard Travelling (live)
TTITLE15=But Everything will be Allright (live)
EXTD=Resonator Festival  2.9.2003 Sulingen
EXTT0=
EXTT1=
EXTT2=
EXTT3=
EXTT4=
EXTT5=
EXTT6=
EXTT7=
EXTT8=
EXTT9=
EXTT10=
EXTT11=
EXTT12=
EXTT13=
EXTT14=
EXTT15=
PLAYORDER=
